<?xml version="1.0" encoding="UTF-8" standalone="no"?>
<svg xmlns:rdf="http://www.w3.org/1999/02/22-rdf-syntax-ns#" xmlns="http://www.w3.org/2000/svg" height="76" width="352" version="1.1" xmlns:cc="http://creativecommons.org/ns#" xmlns:dc="http://purl.org/dc/elements/1.1/">
<style>.s0{fill:#72706f;}.s1{fill:#ff6905;}.s2{fill:#969594;}</style>
<g transform="matrix(.569 0 0 .569 -7.96 -4.84)">
<path style="fill:#72706f" d="m330 32h-17.4v53.3c0 12.2-4.1 18.5-16.9 18.5s-16.3-6.5-16.3-18.5v-53.3h-8.8c-2.5 0-4.6 1-6.3 2.8s-2.6 4-2.6 6.5v45.9c0 23.6 10.6 31.2 33.6 31.2 9.3 0 21.6-0.9 28.3-8.2 5.5-6 6.4-15.2 6.4-22.9v-55.2zm-145 86.3h17.2v-59.9l35.1 59.1 0.5 0.9h4.6 12.9v-0.8-85.5h-17.2v59l-34.9-59h-9.4"/>
<path style="fill:#72706f" d="m185 118h17.2v-59.9l35.1 59.1 0.5 0.9h4.6 12.9v-0.8-85.5h-17.2v59l-34.9-59h-9.4c-2.4 0.2-4.5 1.1-6.3 2.8-1.7 1.7-2.6 3.8-2.6 6.3v77.2z"/>
<path style="fill:#72706f" d="m179 60.6v-0.6c-1.3-8.4-5.1-15.3-11.8-20.6-8-5.5-17-7.4-25-7.4-11.2 0-20.9 3.6-28.5 12-7.8 8.7-10.3 19.9-10.3 31.3 0 11.5 2.6 22.9 10.5 31.5 7.3 8.4 17.1 11.7 28 11.7 4.7 0 9.3-0.8 13.7-2.6 3.3-1.6 6-3.8 8.4-6.6l0.2-0.2v9.4h15.4v-46.6h-29.6v14.5h13.1v0.1c-0.9 4.6-2.8 8.7-6.3 11.9-3.6 3.1-8.1 4.4-12.8 4.4-6.5 0-12.2-2-16.3-7.1-4.6-5.7-6-13.2-6-20.4s1.4-14.6 5.8-20.4c4-5 9.3-7.1 15.6-7.1 4.2 0 8.7 0.7 12.2 3.2 1.8 1.4 3.4 3 4.6 5 1.7 3.1 4.3 4.8 7.8 4.8h12z"/>
<path style="fill:#ff6905" d="m419 68h16.4c0.8-1.8 2.1-3 4-3.7 2-0.7 4.1-1 6.2-1 3.9 0 11 0.7 11 6v7 0.1h-0.1c-6 0.1-12.1 0.1-18 0.8-4.5 0.5-9.2 1.5-13.1 4l-2.1 1.5c-4.5 3.8-6 9-6 14.8 0 13.4 9.2 20.7 22.1 20.7h0.3c3.4 0 6.7-0.3 10.1-0.6 2.4-0.3 4.8-0.8 7-1.6h0.1v2.2h15.7c0-16.6 0.2-33.3 0.2-49.9 0-5.8-2.3-10.5-7.1-13.8-5.7-3.9-14-4.7-20.8-4.7-6.7 0-13.8 1.2-19 5.7-3.9 3.3-6.2 7.4-6.9 12.5zm37.9 21.1v4c0 3-0.2 6.4-2.4 8.6-2.9 2.9-8.6 3.4-12.5 3.4-2.2 0-5.4-0.3-7-1.9-2.6-2.4-2.4-6.6-1.1-9.6 1.1-2.6 5.3-3.5 7.8-3.9 4.9-0.8 10.3-0.7 15.2-0.7h0.1zm137 28.4"/>
<path style="fill:#ff6905" d="m594 118c5.5 1.2 11 1.1 16.5-0.4 6.3-1.4 11.3-4.9 15.1-10.1 2-2.9 3.4-6.3 4.5-9.7 1.3-4.3 1.7-9.1 1.7-13.6 0-6.6-1.2-13.2-4.2-19.1-3-6.1-7.6-10.4-13.8-12.9-5.9-2.1-12.2-2.4-18.3-1.6-6.6 0.9-12.2 3.7-16.6 8.8-2.8 3.2-4.7 7-5.8 11.1-1.2 4.4-1.9 8.8-1.9 13.4 0 5.3 0.7 10.6 2.2 15.7 1.4 4.7 3.7 8.8 7.4 12 3.7 3.3 8.4 5.2 13.2 6.3zm-6-33.4c-0.3-5.9 0.6-12.5 4.7-17.1 1.4-1.4 3.6-2.3 5.5-2.9 2.5-0.7 5-0.7 7.5 0.1 2.9 1 5 3.3 6.6 5.8 2.4 3.7 2.9 9.1 2.9 13.5-0.1 4.5-0.7 10.6-3.2 14.4-1.7 2.5-3.9 4.8-6.9 5.6-2.6 0.7-5.1 0.7-7.6-0.3-1.9-0.7-4-1.7-5.2-3.4-3.3-3.9-4-10.9-4.2-15.8z"/>
<path style="fill:#72706f" d="m548 45.2h17.2v-5.1c0-2.3-0.8-4.3-2.5-5.9-1.1-1.1-2.3-1.8-3.8-2.2h-11v13.2z"/>
<path style="fill:#ff6905" d="m548 49.9v68.4h17.2v-60c0-2.3-0.8-4.3-2.5-5.9-1.6-1.6-3.6-2.5-5.9-2.5h-8.8zm-23.2-18v28.2l-0.2-0.3"/>
<path style="fill:#ff6905" d="m524 31.9v28.2l-0.2-0.3c-2-3.2-4.7-5.7-7.9-7.7-3.4-1.8-7.1-2.5-10.9-2.5-7.9 0-14.2 3.4-19 9.6-5.5 7.2-7.2 16.2-7.2 25s1.6 17.9 7.2 25c2.6 3.3 5.9 5.5 9.9 6.8 4.1 1.4 8.3 2.1 12.6 2.1 7.9 0 15.3-2.1 22-6.2 8.2-5 10.1-14.8 10.1-23.7v-48.4c0-2.2-0.9-4.1-2.5-5.8-1.1-1.1-2.3-1.9-3.8-2.3h-10.4zm-3.7 37.6c2.9 4.1 3.7 9.3 3.7 14.2 0 5-0.7 10.9-3.5 15.2-2.6 3.6-6.1 5.2-10.5 5.2s-8.1-1.6-10.7-5.2c-3-4.2-3.7-10.1-3.7-15.2 0-4.8 0.8-10 3.7-13.9 2.5-3.5 5.9-5.2 10.2-5.2 4.4 0 8 1.6 10.7 5z"/>
<path style="fill:#ff6905" d="m344 118h17.4v-34.4h18.7c9.6 0 13.4 4.9 13.4 14.2v0.2 8.5 0.1 4.6 6.8h17.4v-23.3c0.2-4.8-0.9-9.8-3.9-13.6-1.8-2.3-4.3-4.1-7.1-5.1l-0.2-0.1 0.2-0.1c3.9-1.4 7.2-3.6 9.4-7.2 2.6-3.9 3.5-8.5 3.5-13.1 0-6.8-1.7-13.4-6.9-18.1-5.4-4.8-13.5-5.9-20.5-5.9h-32.5c-2.4 0-4.5 0.9-6.3 2.6-1.7 1.7-2.6 3.8-2.6 6.3v77.5zm48-68.6c2.5 2.1 3.2 5.3 3.2 8.5s-0.7 6.4-3.2 8.5c-2.7 2.2-6.6 2.8-10 2.8h-20.7v-22.8h21.7c3.2 0 6.6 0.7 9 3z"/>
<path style="fill:#ff6905" d="m20.1 29.9c4.5-8 14-13.6 24.9-13.6s20.3 5.5 24.8 13.5l5.5-5.7c-6.2-9.3-17.5-15.6-30.4-15.6-13 0-24.3 6.3-30.5 15.8l5.6 5.6z"/>
<path style="fill:#ff6905" d="m44.9 22.1c-9.5 0-17.7 4.5-21.6 11l5.6 5.5c2.2-5.1 8.5-8.7 16-8.7 7.6 0 13.9 3.7 16 8.9l5.6-5.7c-3.9-6.5-12.1-11-21.6-11z"/>
<path style="fill:#969594" d="m106 142v-9.8h-3.5v-0.9q0-0.5 0.3-0.9 0.4-0.4 0.9-0.4h8.3v2.1h-3.5v9.8h-2.5zm10.5 0v-10.7"/>
<path style="fill:#969594" d="m117 142v-10.7q0-0.5 0.3-0.9 0.4-0.4 0.9-0.4h1.2v4.4h4.9v-4.4h2.5v11.9h-2.5v-5.3h-4.9v5.3h-2.5z"/>
<path style="fill:#969594" d="m131 142v-10.7q0-0.5 0.3-0.9 0.4-0.4 0.9-0.4h7.4v2h-6.2v2.6h4.6v0.8q0 0.5-0.4 0.9-0.3 0.3-0.9 0.3h-3.4v3.1h6.2v2.2h-8.7z"/>
<path style="fill:#969594" d="m152 142v-10.7q0-0.5 0.3-0.9 0.4-0.4 0.9-0.4h7.4v2h-6.2v2.6h4.6v0.8q0 0.5-0.4 0.9-0.3 0.3-0.9 0.3h-3.4v5.3h-2.4z"/>
<path style="fill:#969594" d="m165 142v-10.7q0-0.5 0.3-0.9 0.4-0.4 0.9-0.4h4.5q1.9 0 2.9 0.8 1 0.9 1 2.5 0 1.1-0.5 1.8-0.4 0.7-1.3 1 0.8 0.3 1.1 0.8t0.4 1.8l0.1 1.4q0 0.2 0 0.5 0 0.2 0 0.5 0.1 0.6 0.4 0.8h-2.7q-0.2-0.3-0.2-0.7-0.1-0.6-0.1-0.8v-1.3q-0.1-1-0.4-1.5-0.4-0.4-1.4-0.4h-2.6v4.6h-2.5zm2.5-6.7h2.9q0.9 0 1.4-0.4t0.5-1.2-0.5-1.2q-0.4-0.4-1.2-0.4h-3v3.2z"/>
<path style="fill:#969594" d="m179 142v-10.7q0-0.5 0.3-0.9 0.4-0.4 0.9-0.4h7.4v2h-6.2v2.6h4.6v0.8q0 0.5-0.4 0.9-0.3 0.3-0.9 0.3h-3.4v3.1h6.2v2.2h-8.7z"/>
<path style="fill:#969594" d="m192 142v-10.7q0-0.5 0.3-0.9 0.4-0.4 0.9-0.4h7.4v2h-6.2v2.6h4.6v0.8q0 0.5-0.4 0.9-0.3 0.3-0.9 0.3h-3.4v3.1h6.2v2.2h-8.7z"/>
<path style="fill:#969594" d="m217 136-0.6 0.5q-0.4 0.3-0.6 0.6-0.2 0.4-0.2 0.8 0 0.7 0.5 1.1 0.5 0.5 1.2 0.5 0.5 0 1-0.2 0.4-0.2 0.9-0.6l-2.2-2.7zm0.6-2.5 0.3-0.2q0.4-0.3 0.6-0.6t0.2-0.8q0-0.4-0.3-0.7-0.2-0.2-0.7-0.2t-0.7 0.2q-0.3 0.3-0.3 0.7 0 0.1 0.1 0.5 0 0.2 0.1 0.3t0.2 0.3l0.4 0.5zm-1.8 1.1-0.5-0.6q-0.4-0.5-0.5-0.9-0.2-0.5-0.2-0.9 0-1.3 0.9-2 0.8-0.8 2.3-0.8 1.4 0 2.2 0.7t0.8 1.9q0 0.9-0.5 1.6t-1.5 1.3l1.7 2.1q0.2-0.4 0.4-0.9 0.1-0.7 0.2-1.1h1.2q0.6 0 0.7 0.3t0.1 0.6q-0.1 0.5-0.3 1-0.4 0.9-1 1.7l2.2 2.6h-2.8l-0.8-1q-0.4 0.3-0.8 0.6t-0.8 0.4q-1.1 0.2-2.4 0.1-1.2-0.1-2.1-0.8-1-0.9-1-2.5 0-1.1 0.6-2 0.6-0.8 1.9-1.6z"/>
<path style="fill:#969594" d="m239 136q0 2 0.9 3.1t2.5 1.1 2.5-1.1 0.9-3.1q0-1.9-0.9-3.1-0.9-1.1-2.5-1.1t-2.5 1.1-0.9 3.1zm-2.5 0q0-2.9 1.5-4.6 1.6-1.7 4.3-1.7 2.6 0 4.3 1.7 1.6 1.7 1.6 4.6t-1.6 4.6-4.3 1.7-4.3-1.7q-1.5-1.7-1.5-4.6z"/>
<path style="fill:#969594" d="m255 138v4.3h-2.5v-10.7q0-0.5 0.3-0.9 0.4-0.4 0.9-0.4h4.1q1.9 0 2.8 1 1 1 1 2.9 0 1.8-0.9 2.8t-2.7 1h-3zm0-2.2h2.4q1 0 1.4-0.4 0.5-0.4 0.5-1.3 0-0.8-0.4-1.3-0.5-0.4-1.3-0.4h-2.5v3.4z"/>
<path style="fill:#969594" d="m266 142v-10.7q0-0.5 0.3-0.9 0.4-0.4 0.9-0.4h7.4v2h-6.2v2.6h4.6v0.8q0 0.5-0.4 0.9-0.3 0.3-0.9 0.3h-3.4v3.1h6.2v2.2h-8.7z"/>
<path style="fill:#969594" d="m279 142v-10.7q0-0.5 0.3-0.9 0.4-0.4 0.9-0.4h1.3l4.9 8.2v-8.2h2.4v12h-2.5l-4.9-8.2v8.2h-2.4z"/>
<path style="fill:#969594" d="m301 138h2.4q0.1 1 0.8 1.5t1.9 0.5q1.1 0 1.6-0.4 0.6-0.4 0.6-1.1 0-1.1-3.1-1.8h-0.1t-0.3-0.1q-1.8-0.4-2.4-0.8-0.7-0.4-1-1.1-0.3-0.6-0.3-1.6 0-1.7 1.2-2.7 1.2-0.9 3.4-0.9 2.1 0 3.3 1 1.2 1.1 1.2 2.8h-1.4q-0.8 0-1.1-0.7-0.2-0.3-0.5-0.6-0.6-0.5-1.7-0.5-1 0-1.5 0.4t-0.5 1.1q0 0.9 2 1.4 0.6 0.2 0.9 0.2 0.6 0.2 1.1 0.3t0.8 0.2q0.5 0.2 1 0.4 0.7 0.4 1.1 1.1t0.4 1.6q0 1.9-1.2 2.9t-3.5 1q-2.4 0-3.5-1-1.3-1-1.4-3z"/>
<path style="fill:#969594" d="m332 142v-10.7q0-0.5 0.3-0.9 0.4-0.4 0.9-0.4h7.4v2h-6.2v2.6h4.6v0.8q0 0.5-0.4 0.9-0.3 0.3-0.9 0.3h-3.4v5.3h-2.4z"/>
<path style="fill:#969594" d="m348 142v-9.8h-3.5v-0.9q0-0.5 0.3-0.9 0.4-0.4 0.9-0.4h8.3v2.1h-3.5v9.8h-2.5z"/>
<path style="fill:#969594" d="m362 142-3.4-11.9h2.5l2 8.4 1.7-8.4h2.6l1.7 8.4 1.8-7.5q0.2-0.9 1.2-0.9h1.5l-3.4 11.9h-2.4l-1.8-9.2-1.9 9.2h-2.3z"/>
<path style="fill:#969594" d="m384 130h1.9l4.3 11.9h-2.6l-0.8-2.5h-4.6l-0.8 2.5h-2.6l4-11.1q0.3-0.8 1.2-0.8zm0.6 2.4-1.7 5.1h3.3l-1.7-5.1z"/>
<path style="fill:#969594" d="m394 142v-10.7q0-0.5 0.3-0.9 0.4-0.4 0.9-0.4h4.5q1.9 0 2.9 0.8 1 0.9 1 2.5 0 1.1-0.5 1.8-0.4 0.7-1.3 1 0.8 0.3 1.1 0.8t0.4 1.8l0.1 1.4q0 0.2 0 0.5 0 0.2 0 0.5 0.1 0.6 0.4 0.8h-2.7q-0.2-0.3-0.2-0.7-0.1-0.6-0.1-0.8v-1.3q-0.1-1-0.4-1.5-0.4-0.4-1.4-0.4h-2.6v4.6h-2.5zm2.5-6.7h2.9q0.9 0 1.4-0.4t0.5-1.2-0.5-1.2q-0.4-0.4-1.2-0.4h-3v3.2z"/>
<path style="fill:#969594" d="m409 142v-10.7q0-0.5 0.3-0.9 0.4-0.4 0.9-0.4h7.4v2h-6.2v2.6h4.6v0.8q0 0.5-0.4 0.9-0.3 0.3-0.9 0.3h-3.4v3.1h6.2v2.2h-8.7z"/>
<path style="fill:#969594" d="m430 142v-10.7q0-0.5 0.3-0.9 0.4-0.4 0.9-0.4h4.5q1.9 0 2.9 0.8 1 0.9 1 2.5 0 1.1-0.5 1.8-0.4 0.7-1.3 1 0.8 0.3 1.1 0.8t0.4 1.8l0.1 1.4q0 0.2 0 0.5 0 0.2 0 0.5 0.1 0.6 0.4 0.8h-2.7q-0.2-0.3-0.2-0.7-0.1-0.6-0.1-0.8v-1.3q-0.1-1-0.4-1.5-0.4-0.4-1.4-0.4h-2.6v4.6h-2.5zm2.5-6.7h2.9q0.9 0 1.4-0.4t0.5-1.2-0.5-1.2q-0.4-0.4-1.2-0.4h-3v3.2z"/>
<path style="fill:#969594" d="m449 130h1.9l4.3 11.9h-2.6l-0.8-2.5h-4.6l-0.8 2.5h-2.6l4-11.1q0.3-0.8 1.2-0.8zm0.6 2.4-1.7 5.1h3.3l-1.7-5.1z"/>
<path style="fill:#969594" d="m460 142v-10.7q0-0.5 0.3-0.9 0.4-0.4 0.9-0.4h3.4q2.7 0 4.1 1.5t1.4 4.5q0 1.6-0.5 2.9-0.6 1.3-1.5 2-0.8 0.6-1.6 0.8t-2.5 0.2h-4zm2.4-2.2h2q1.7 0 2.5-0.9 0.8-0.8 0.8-2.9 0-2-0.7-2.9t-2.2-0.9h-2.3v7.7z"/>
<path style="fill:#969594" d="m475 142v-10.7q0-0.5 0.3-0.9 0.4-0.4 0.9-0.4h1.2v11.9h-2.5z"/>
<path style="fill:#969594" d="m484 136q0 2 0.9 3.1t2.5 1.1 2.5-1.1 0.9-3.1q0-1.9-0.9-3.1-0.9-1.1-2.5-1.1t-2.5 1.1-0.9 3.1zm-2.5 0q0-2.9 1.5-4.6 1.6-1.7 4.3-1.7 2.6 0 4.3 1.7 1.6 1.7 1.6 4.6t-1.6 4.6-4.3 1.7-4.3-1.7q-1.5-1.7-1.5-4.6z"/>
<path style="fill:#969594" d="m505 142v-10.7q0-0.5 0.3-0.9 0.4-0.4 0.9-0.4h7.4v2h-6.2v2.6h4.6v0.8q0 0.5-0.4 0.9-0.3 0.3-0.9 0.3h-3.4v3.1h6.2v2.2h-8.7z"/>
<path style="fill:#969594" d="m529 138q-0.2 2.1-1.6 3.3-1.4 1.1-3.7 1.1-2.7 0-4.1-1.6t-1.4-4.6q0-3.1 1.5-4.7t4.3-1.6q2.3 0 3.6 1.1t1.5 3.1h-1.5q-0.8 0-1.2-0.7-0.2-0.5-0.6-0.8-0.7-0.5-1.8-0.5-1.6 0-2.5 1-0.8 1-0.8 3.1 0 1.9 0.8 3t2.4 1.1q1.1 0 1.8-0.6 0.7-0.5 0.9-1.7h2.4z"/>
<path style="fill:#969594" d="m536 136q0 2 0.9 3.1t2.5 1.1 2.5-1.1 0.9-3.1q0-1.9-0.9-3.1-0.9-1.1-2.5-1.1t-2.5 1.1-0.9 3.1zm-2.5 0q0-2.9 1.5-4.6 1.6-1.7 4.3-1.7 2.6 0 4.3 1.7 1.6 1.7 1.6 4.6t-1.6 4.6-4.3 1.7-4.3-1.7q-1.5-1.7-1.5-4.6z"/>
<path style="fill:#969594" d="m549 138h2.4q0.1 1 0.8 1.5t1.9 0.5q1.1 0 1.6-0.4 0.6-0.4 0.6-1.1 0-1.1-3.1-1.8h-0.1t-0.3-0.1q-1.8-0.4-2.4-0.8-0.7-0.4-1-1.1-0.3-0.6-0.3-1.6 0-1.7 1.2-2.7 1.2-0.9 3.4-0.9 2.1 0 3.3 1 1.2 1.1 1.2 2.8h-1.4q-0.8 0-1.1-0.7-0.2-0.3-0.5-0.6-0.6-0.5-1.7-0.5-1 0-1.5 0.4t-0.5 1.1q0 0.9 2 1.4 0.6 0.2 0.9 0.2 0.6 0.2 1.1 0.3t0.8 0.2q0.5 0.2 1 0.4 0.7 0.4 1.1 1.1t0.4 1.6q0 1.9-1.2 2.9t-3.5 1q-2.4 0-3.5-1-1.3-1-1.4-3z"/>
<path style="fill:#969594" d="m570 142h-2.5v-4.4l-4.3-7.5h3l2.5 5.1 2-4.4q0.3-0.7 1.1-0.7h2l-3.9 7.5v4.4z"/>
<path style="fill:#969594" d="m579 138h2.4q0.1 1 0.8 1.5t1.9 0.5q1.1 0 1.6-0.4 0.6-0.4 0.6-1.1 0-1.1-3.1-1.8h-0.1t-0.3-0.1q-1.8-0.4-2.4-0.8-0.7-0.4-1-1.1-0.3-0.6-0.3-1.6 0-1.7 1.2-2.7 1.2-0.9 3.4-0.9 2.1 0 3.3 1 1.2 1.1 1.2 2.8h-1.4q-0.8 0-1.1-0.7-0.2-0.3-0.5-0.6-0.6-0.5-1.7-0.5-1 0-1.5 0.4t-0.5 1.1q0 0.9 2 1.4 0.6 0.2 0.9 0.2 0.6 0.2 1.1 0.3t0.8 0.2q0.5 0.2 1 0.4 0.7 0.4 1.1 1.1t0.4 1.6q0 1.9-1.2 2.9t-3.5 1q-2.4 0-3.5-1-1.3-1-1.4-3z"/>
<path style="fill:#969594" d="m597 142v-9.8h-3.5v-0.9q0-0.5 0.3-0.9 0.4-0.4 0.9-0.4h8.3v2.1h-3.5v9.8h-2.5z"/>
<path style="fill:#969594" d="m607 142v-10.7q0-0.5 0.3-0.9 0.4-0.4 0.9-0.4h7.4v2h-6.2v2.6h4.6v0.8q0 0.5-0.4 0.9-0.3 0.3-0.9 0.3h-3.4v3.1h6.2v2.2h-8.7z"/>
<path style="fill:#969594" d="m620 142v-10.7q0-0.5 0.3-0.9 0.4-0.4 0.9-0.4h2.4l2.4 9.1 2.4-9.1h3.6v12h-2.3v-9.6l-2.4 9.6h-2.5l-2.5-9.6v9.6h-2.3z"/>
<path style="fill:#ff6905" d="m84.9 67.1c3.5 3.5 5.3 7.7 5.3 12.7 0 4.9-1.7 9.1-5.2 12.5-3.5 3.5-7.6 5.2-12.5 5.2-3.4 0-6.4-0.8-9.2-2.5l-6.3 6.3c3.9 4.5 5.9 9.8 5.9 16.1 0 6.7-2.4 12.4-7.2 17.2s-10.5 7.2-17.1 7.2c-6.8 0-12.5-2.4-17.4-7.1-4.8-4-7.2-10-7.2-17 0-6.8 2.3-12.5 7-17.4 4.6-4.8 10.3-7.2 17.1-7.2 6 0 11.2 1.8 15.6 5.3l6-6c-3.4-3.4-5.1-7.6-5.1-12.4 0-4.9 1.7-9.1 5.1-12.6 0.3-0.3 0.6-0.6 1-0.9l-6.2-5.8c-2.7 2.5-5.9 3.8-9.5 3.8-3.9 0-7.2-1.4-9.9-4.1-2.8-2.7-4.1-6-4.1-9.9s1.3-7.2 4-9.9c2.7-2.8 5.9-4.1 9.8-4.1 4 0 7.3 1.4 10.1 4.1s4.1 6.1 4.1 10c0 2.7-0.7 5.1-2 7.3l6.9 6.9c2.5-1.4 5.3-2.1 8.4-2.1 5 0 9.3 1.7 12.8 5.2zm-40-25.2c-2.2 0-4 0.8-5.5 2.3-1.5 1.6-2.2 3.4-2.2 5.6s0.7 4.1 2.2 5.6 3.3 2.2 5.6 2.2c2.1 0 3.9-0.8 5.4-2.3s2.2-3.4 2.2-5.5c0-1-0.2-2-0.6-3s-0.9-1.8-1.6-2.5-1.5-1.3-2.5-1.8c-1-0.4-1.9-0.7-2.9-0.7zm-6.4 61.7c-3.8 0-7 1.4-9.6 4.1s-3.9 5.9-3.9 9.7c0 3.9 1.3 7.1 3.8 9.7s5.8 3.9 9.7 3.9c3.7 0 6.8-1.3 9.4-4s3.9-5.9 3.9-9.6c0-1.8-0.3-3.6-1-5.2-0.7-1.7-1.6-3.1-2.8-4.3-1.2-1.3-2.7-2.3-4.4-3.1s-3.4-1.2-5.1-1.2zm34-33.9c-2.8 0-5.1 1-7 3s-2.8 4.3-2.8 7.1 0.9 5.2 2.8 7.1 4.2 2.8 7.1 2.8c2.7 0 5-1 6.9-2.9 1.9-2 2.8-4.3 2.8-7 0-1.3-0.2-2.6-0.7-3.8s-1.2-2.3-2.1-3.1c-0.9-0.9-1.9-1.7-3.2-2.2-1.2-0.6-2.5-0.8-3.7-0.8z"/>
<path style="fill:#969594" d="m318 136q0 2 0.9 3.1t2.5 1.1 2.5-1.1 0.9-3.1q0-1.9-0.9-3.1-0.9-1.1-2.5-1.1t-2.5 1.1-0.9 3.1zm-2.5 0q0-2.9 1.5-4.6 1.6-1.7 4.3-1.7 2.6 0 4.3 1.7 1.6 1.7 1.6 4.6t-1.6 4.6-4.3 1.7-4.3-1.7q-1.5-1.7-1.5-4.6z"/>
</g>
</svg>
